<?xml version="1.0" encoding="UTF-8" standalone="no"?>
<!DOCTYPE svg PUBLIC "-//W3C//DTD SVG 1.1//EN"
 "http://www.w3.org/Graphics/SVG/1.1/DTD/svg11.dtd">
<!-- Generated by graphviz version 13.1.2 (20250808.2320)
 -->
<!-- Title: G Pages: 1 -->
<svg width="909pt" height="1094pt"
 viewBox="0.00 0.00 909.00 1094.00" xmlns="http://www.w3.org/2000/svg" xmlns:xlink="http://www.w3.org/1999/xlink">
<g id="graph0" class="graph" transform="scale(1 1) rotate(0) translate(4 1089.66)">
<title>G</title>
<polygon fill="white" stroke="none" points="-4,4 -4,-1089.66 904.74,-1089.66 904.74,4 -4,4"/>
<!-- root -->
<g id="node1" class="node">
<title>root</title>
<path fill="none" stroke="black" d="M158.99,-546.01C158.99,-546.01 158.99,-550.99 158.99,-550.99 158.99,-553.47 156.57,-556.52 154.15,-557.08 154.15,-557.08 118.43,-565.38 118.43,-565.38 116.01,-565.94 111.11,-566.5 108.62,-566.5 108.62,-566.5 54.37,-566.5 54.37,-566.5 51.88,-566.5 46.97,-565.94 44.55,-565.38 44.55,-565.38 8.84,-557.08 8.84,-557.08 6.42,-556.52 4,-553.47 4,-550.99 4,-550.99 4,-546.01 4,-546.01 4,-543.53 6.42,-540.48 8.84,-539.92 8.84,-539.92 44.55,-531.62 44.55,-531.62 46.97,-531.06 51.88,-530.5 54.37,-530.5 54.37,-530.5 108.62,-530.5 108.62,-530.5 111.11,-530.5 116.01,-531.06 118.43,-531.62 118.43,-531.62 154.15,-539.92 154.15,-539.92 156.57,-540.48 158.99,-543.53 158.99,-546.01"/>
<path fill="none" stroke="black" d="M162.99,-544.96C162.99,-544.96 162.99,-552.04 162.99,-552.04 162.99,-555.59 159.54,-559.94 156.08,-560.74 156.08,-560.74 120.96,-568.9 120.96,-568.9 117.5,-569.7 110.51,-570.5 106.96,-570.5 106.96,-570.5 56.03,-570.5 56.03,-570.5 52.48,-570.5 45.48,-569.7 42.03,-568.9 42.03,-568.9 6.9,-560.74 6.9,-560.74 3.45,-559.94 0,-555.59 0,-552.04 0,-552.04 0,-544.96 0,-544.96 0,-541.41 3.45,-537.06 6.9,-536.26 6.9,-536.26 42.03,-528.1 42.03,-528.1 45.48,-527.3 52.48,-526.5 56.03,-526.5 56.03,-526.5 106.96,-526.5 106.96,-526.5 110.51,-526.5 117.5,-527.3 120.96,-528.1 120.96,-528.1 156.08,-536.26 156.08,-536.26 159.54,-537.06 162.99,-541.41 162.99,-544.96"/>
<text xml:space="preserve" text-anchor="middle" x="81.49" y="-544.62" font-family="Times,serif" font-size="10.00">Frequenz SDK for Python</text>
</g>
<!-- applicationCategory -->
<g id="node2" class="node">
<title>applicationCategory</title>
<path fill="none" stroke="black" d="M506.74,-1079.5C506.74,-1079.5 327.24,-1079.5 327.24,-1079.5 321.24,-1079.5 315.24,-1073.5 315.24,-1067.5 315.24,-1067.5 315.24,-1055.5 315.24,-1055.5 315.24,-1049.5 321.24,-1043.5 327.24,-1043.5 327.24,-1043.5 506.74,-1043.5 506.74,-1043.5 512.74,-1043.5 518.74,-1049.5 518.74,-1055.5 518.74,-1055.5 518.74,-1067.5 518.74,-1067.5 518.74,-1073.5 512.74,-1079.5 506.74,-1079.5"/>
<text xml:space="preserve" text-anchor="middle" x="416.99" y="-1057.62" font-family="Times,serif" font-size="10.00">Energy management / Microgrid orchestration</text>
</g>
<!-- root&#45;&gt;applicationCategory -->
<g id="edge1" class="edge">
<title>root&#45;&gt;applicationCategory</title>
<path fill="none" stroke="black" d="M83.68,-570.72C88.77,-657.04 111.74,-968.45 180.99,-1032.5 213.47,-1062.54 260.18,-1072.45 303.41,-1073.84"/>
<polygon fill="black" stroke="black" points="303.34,-1077.34 313.39,-1074 303.45,-1070.34 303.34,-1077.34"/>
<text xml:space="preserve" text-anchor="middle" x="223.36" y="-1072.36" font-family="Times,serif" font-size="14.00">category</text>
</g>
<!-- programmingLanguage -->
<g id="node3" class="node">
<title>programmingLanguage</title>
<path fill="none" stroke="black" d="M431.99,-1025.5C431.99,-1025.5 401.99,-1025.5 401.99,-1025.5 395.99,-1025.5 389.99,-1019.5 389.99,-1013.5 389.99,-1013.5 389.99,-1001.5 389.99,-1001.5 389.99,-995.5 395.99,-989.5 401.99,-989.5 401.99,-989.5 431.99,-989.5 431.99,-989.5 437.99,-989.5 443.99,-995.5 443.99,-1001.5 443.99,-1001.5 443.99,-1013.5 443.99,-1013.5 443.99,-1019.5 437.99,-1025.5 431.99,-1025.5"/>
<text xml:space="preserve" text-anchor="middle" x="416.99" y="-1003.62" font-family="Times,serif" font-size="10.00">Python</text>
</g>
<!-- root&#45;&gt;programmingLanguage -->
<g id="edge2" class="edge">
<title>root&#45;&gt;programmingLanguage</title>
<path fill="none" stroke="black" d="M84.4,-571C91.65,-650.84 120.18,-918.81 180.99,-974.5 234.96,-1023.94 327.2,-1020.65 378.6,-1014.01"/>
<polygon fill="black" stroke="black" points="378.92,-1017.5 388.33,-1012.63 377.94,-1010.57 378.92,-1017.5"/>
<text xml:space="preserve" text-anchor="middle" x="223.36" y="-1015.03" font-family="Times,serif" font-size="14.00">language</text>
</g>
<!-- codeRepository -->
<g id="node4" class="node">
<title>codeRepository</title>
<path fill="none" stroke="black" d="M524.74,-971.5C524.74,-971.5 309.24,-971.5 309.24,-971.5 303.24,-971.5 297.24,-965.5 297.24,-959.5 297.24,-959.5 297.24,-947.5 297.24,-947.5 297.24,-941.5 303.24,-935.5 309.24,-935.5 309.24,-935.5 524.74,-935.5 524.74,-935.5 530.74,-935.5 536.74,-941.5 536.74,-947.5 536.74,-947.5 536.74,-959.5 536.74,-959.5 536.74,-965.5 530.74,-971.5 524.74,-971.5"/>
<text xml:space="preserve" text-anchor="middle" x="416.99" y="-949.62" font-family="Times,serif" font-size="10.00">https://github.com/frequenz&#45;floss/frequenz&#45;sdk&#45;python</text>
</g>
<!-- root&#45;&gt;codeRepository -->
<g id="edge3" class="edge">
<title>root&#45;&gt;codeRepository</title>
<path fill="none" stroke="black" d="M85.31,-570.82C94.89,-643 128.54,-868.14 180.99,-915.5 209.39,-941.15 248,-953.22 285.71,-958.17"/>
<polygon fill="black" stroke="black" points="285.01,-961.61 295.34,-959.26 285.8,-954.65 285.01,-961.61"/>
<text xml:space="preserve" text-anchor="middle" x="223.36" y="-956.85" font-family="Times,serif" font-size="14.00">codeRepository</text>
</g>
<!-- license -->
<g id="node5" class="node">
<title>license</title>
<path fill="none" stroke="black" d="M486.86,-917.5C486.86,-917.5 347.11,-917.5 347.11,-917.5 341.11,-917.5 335.11,-911.5 335.11,-905.5 335.11,-905.5 335.11,-893.5 335.11,-893.5 335.11,-887.5 341.11,-881.5 347.11,-881.5 347.11,-881.5 486.86,-881.5 486.86,-881.5 492.86,-881.5 498.86,-887.5 498.86,-893.5 498.86,-893.5 498.86,-905.5 498.86,-905.5 498.86,-911.5 492.86,-917.5 486.86,-917.5"/>
<text xml:space="preserve" text-anchor="middle" x="416.99" y="-895.62" font-family="Times,serif" font-size="10.00">https://opensource.org/licenses/MIT</text>
</g>
<!-- root&#45;&gt;license -->
<g id="edge4" class="edge">
<title>root&#45;&gt;license</title>
<path fill="none" stroke="black" d="M82.36,-570.84C83.34,-627.98 94.34,-780.33 180.99,-856.5 219.49,-890.34 275.59,-901.53 323.32,-904.05"/>
<polygon fill="black" stroke="black" points="322.98,-907.54 333.11,-904.44 323.26,-900.55 322.98,-907.54"/>
<text xml:space="preserve" text-anchor="middle" x="223.36" y="-898.45" font-family="Times,serif" font-size="14.00">license</text>
</g>
<!-- documentation -->
<g id="node6" class="node">
<title>documentation</title>
<path fill="none" stroke="black" d="M521.36,-863.5C521.36,-863.5 312.61,-863.5 312.61,-863.5 306.61,-863.5 300.61,-857.5 300.61,-851.5 300.61,-851.5 300.61,-839.5 300.61,-839.5 300.61,-833.5 306.61,-827.5 312.61,-827.5 312.61,-827.5 521.36,-827.5 521.36,-827.5 527.36,-827.5 533.36,-833.5 533.36,-839.5 533.36,-839.5 533.36,-851.5 533.36,-851.5 533.36,-857.5 527.36,-863.5 521.36,-863.5"/>
<text xml:space="preserve" text-anchor="middle" x="416.99" y="-841.62" font-family="Times,serif" font-size="10.00">https://frequenz&#45;floss.github.io/frequenz&#45;sdk&#45;python/</text>
</g>
<!-- root&#45;&gt;documentation -->
<g id="edge5" class="edge">
<title>root&#45;&gt;documentation</title>
<path fill="none" stroke="black" d="M84.46,-570.69C90.02,-619.55 110.41,-736.83 180.99,-796.5 210.97,-821.85 250.71,-835.17 288.96,-841.9"/>
<polygon fill="black" stroke="black" points="288.31,-845.34 298.74,-843.46 289.42,-838.42 288.31,-845.34"/>
<text xml:space="preserve" text-anchor="middle" x="223.36" y="-839.07" font-family="Times,serif" font-size="14.00">documentation</text>
</g>
<!-- downloadUrl -->
<g id="node7" class="node">
<title>downloadUrl</title>
<path fill="none" stroke="black" d="M489.86,-809.5C489.86,-809.5 344.11,-809.5 344.11,-809.5 338.11,-809.5 332.11,-803.5 332.11,-797.5 332.11,-797.5 332.11,-785.5 332.11,-785.5 332.11,-779.5 338.11,-773.5 344.11,-773.5 344.11,-773.5 489.86,-773.5 489.86,-773.5 495.86,-773.5 501.86,-779.5 501.86,-785.5 501.86,-785.5 501.86,-797.5 501.86,-797.5 501.86,-803.5 495.86,-809.5 489.86,-809.5"/>
<text xml:space="preserve" text-anchor="middle" x="416.99" y="-787.62" font-family="Times,serif" font-size="10.00">https://pypi.org/project/frequenz&#45;sdk/</text>
</g>
<!-- root&#45;&gt;downloadUrl -->
<g id="edge6" class="edge">
<title>root&#45;&gt;downloadUrl</title>
<path fill="none" stroke="black" d="M88.04,-570.94C98.94,-610.3 126.94,-691.75 180.99,-735.5 220.06,-767.13 274.07,-781.42 320.45,-787.67"/>
<polygon fill="black" stroke="black" points="319.9,-791.13 330.26,-788.87 320.76,-784.18 319.9,-791.13"/>
<text xml:space="preserve" text-anchor="middle" x="223.36" y="-778.83" font-family="Times,serif" font-size="14.00">download</text>
</g>
<!-- issueTracker -->
<g id="node8" class="node">
<title>issueTracker</title>
<path fill="none" stroke="black" d="M538.24,-755.5C538.24,-755.5 295.74,-755.5 295.74,-755.5 289.74,-755.5 283.74,-749.5 283.74,-743.5 283.74,-743.5 283.74,-731.5 283.74,-731.5 283.74,-725.5 289.74,-719.5 295.74,-719.5 295.74,-719.5 538.24,-719.5 538.24,-719.5 544.24,-719.5 550.24,-725.5 550.24,-731.5 550.24,-731.5 550.24,-743.5 550.24,-743.5 550.24,-749.5 544.24,-755.5 538.24,-755.5"/>
<text xml:space="preserve" text-anchor="middle" x="416.99" y="-733.62" font-family="Times,serif" font-size="10.00">https://github.com/frequenz&#45;floss/frequenz&#45;sdk&#45;python/issues</text>
</g>
<!-- root&#45;&gt;issueTracker -->
<g id="edge7" class="edge">
<title>root&#45;&gt;issueTracker</title>
<path fill="none" stroke="black" d="M94.17,-570.56C110.17,-598.76 141.47,-647.3 180.99,-675.5 207.91,-694.71 240.38,-707.97 272.48,-717.12"/>
<polygon fill="black" stroke="black" points="271.31,-720.43 281.88,-719.67 273.14,-713.68 271.31,-720.43"/>
<text xml:space="preserve" text-anchor="middle" x="223.36" y="-717.88" font-family="Times,serif" font-size="14.00">issues</text>
</g>
<!-- operatingSystem -->
<g id="node9" class="node">
<title>operatingSystem</title>
<path fill="none" stroke="black" d="M456.11,-701.5C456.11,-701.5 377.86,-701.5 377.86,-701.5 371.86,-701.5 365.86,-695.5 365.86,-689.5 365.86,-689.5 365.86,-677.5 365.86,-677.5 365.86,-671.5 371.86,-665.5 377.86,-665.5 377.86,-665.5 456.11,-665.5 456.11,-665.5 462.11,-665.5 468.11,-671.5 468.11,-677.5 468.11,-677.5 468.11,-689.5 468.11,-689.5 468.11,-695.5 462.11,-701.5 456.11,-701.5"/>
<text xml:space="preserve" text-anchor="middle" x="416.99" y="-679.62" font-family="Times,serif" font-size="10.00"> Ubuntu Linux 20.04</text>
</g>
<!-- root&#45;&gt;operatingSystem -->
<g id="edge8" class="edge">
<title>root&#45;&gt;operatingSystem</title>
<path fill="none" stroke="black" d="M106.8,-570.79C125.81,-587.25 153.55,-609.19 180.99,-623.5 235.89,-652.13 305.25,-667.67 354.35,-675.71"/>
<polygon fill="black" stroke="black" points="353.52,-679.12 363.95,-677.22 354.61,-672.2 353.52,-679.12"/>
<text xml:space="preserve" text-anchor="middle" x="223.36" y="-658.05" font-family="Times,serif" font-size="14.00">os</text>
</g>
<!-- processorRequirements -->
<g id="node10" class="node">
<title>processorRequirements</title>
<path fill="none" stroke="black" d="M442.99,-647.5C442.99,-647.5 390.99,-647.5 390.99,-647.5 384.99,-647.5 378.99,-641.5 378.99,-635.5 378.99,-635.5 378.99,-623.5 378.99,-623.5 378.99,-617.5 384.99,-611.5 390.99,-611.5 390.99,-611.5 442.99,-611.5 442.99,-611.5 448.99,-611.5 454.99,-617.5 454.99,-623.5 454.99,-623.5 454.99,-635.5 454.99,-635.5 454.99,-641.5 448.99,-647.5 442.99,-647.5"/>
<text xml:space="preserve" text-anchor="middle" x="416.99" y="-625.62" font-family="Times,serif" font-size="10.00"> amd64, arm64</text>
</g>
<!-- root&#45;&gt;processorRequirements -->
<g id="edge9" class="edge">
<title>root&#45;&gt;processorRequirements</title>
<path fill="none" stroke="black" d="M130.38,-567.12C146.32,-572.89 164.27,-578.92 180.99,-583.5 244.51,-600.9 319.42,-614.38 367.29,-622.13"/>
<polygon fill="black" stroke="black" points="366.63,-625.57 377.06,-623.69 367.74,-618.66 366.63,-625.57"/>
<text xml:space="preserve" text-anchor="middle" x="223.36" y="-606.42" font-family="Times,serif" font-size="14.00">arch</text>
</g>
<!-- author -->
<g id="node11" class="node">
<title>author</title>
<ellipse fill="none" stroke="black" cx="416.99" cy="-575.5" rx="31.66" ry="18"/>
<text xml:space="preserve" text-anchor="middle" x="416.99" y="-571.62" font-family="Times,serif" font-size="10.00">Frequenz</text>
</g>
<!-- root&#45;&gt;author -->
<g id="edge10" class="edge">
<title>root&#45;&gt;author</title>
<path fill="none" stroke="black" d="M163.22,-555.04C229.71,-560.42 321.33,-567.84 374.04,-572.1"/>
<polygon fill="black" stroke="black" points="373.55,-575.58 383.8,-572.89 374.12,-568.6 373.55,-575.58"/>
<text xml:space="preserve" text-anchor="middle" x="223.36" y="-566.01" font-family="Times,serif" font-size="14.00">author</text>
</g>
<!-- req_1 -->
<g id="node12" class="node">
<title>req_1</title>
<path fill="none" stroke="black" d="M436.99,-539.5C436.99,-539.5 396.99,-539.5 396.99,-539.5 390.99,-539.5 384.99,-533.5 384.99,-527.5 384.99,-527.5 384.99,-515.5 384.99,-515.5 384.99,-509.5 390.99,-503.5 396.99,-503.5 396.99,-503.5 436.99,-503.5 436.99,-503.5 442.99,-503.5 448.99,-509.5 448.99,-515.5 448.99,-515.5 448.99,-527.5 448.99,-527.5 448.99,-533.5 442.99,-539.5 436.99,-539.5"/>
<text xml:space="preserve" text-anchor="middle" x="416.99" y="-517.62" font-family="Times,serif" font-size="10.00">Python 3.11</text>
</g>
<!-- root&#45;&gt;req_1 -->
<g id="edge11" class="edge">
<title>root&#45;&gt;req_1</title>
<path fill="none" stroke="black" d="M163.34,-537.81C169.31,-537.16 175.24,-536.54 180.99,-536 248.14,-529.67 326.37,-525.48 373.48,-523.3"/>
<polygon fill="black" stroke="black" points="373.42,-526.8 383.26,-522.85 373.11,-519.81 373.42,-526.8"/>
<text xml:space="preserve" text-anchor="middle" x="223.36" y="-539.2" font-family="Times,serif" font-size="14.00">requires</text>
</g>
<!-- req_2 -->
<g id="node13" class="node">
<title>req_2</title>
<path fill="none" stroke="black" d="M437.74,-485.5C437.74,-485.5 396.24,-485.5 396.24,-485.5 390.24,-485.5 384.24,-479.5 384.24,-473.5 384.24,-473.5 384.24,-461.5 384.24,-461.5 384.24,-455.5 390.24,-449.5 396.24,-449.5 396.24,-449.5 437.74,-449.5 437.74,-449.5 443.74,-449.5 449.74,-455.5 449.74,-461.5 449.74,-461.5 449.74,-473.5 449.74,-473.5 449.74,-479.5 443.74,-485.5 437.74,-485.5"/>
<text xml:space="preserve" text-anchor="middle" x="416.99" y="-463.62" font-family="Times,serif" font-size="10.00">Python 3.12</text>
</g>
<!-- root&#45;&gt;req_2 -->
<g id="edge12" class="edge">
<title>root&#45;&gt;req_2</title>
<path fill="none" stroke="black" d="M125.94,-528.82C142.85,-521.77 162.56,-514.26 180.99,-509 246.54,-490.28 324.92,-478.48 372.55,-472.44"/>
<polygon fill="black" stroke="black" points="372.97,-475.91 382.47,-471.21 372.11,-468.97 372.97,-475.91"/>
<text xml:space="preserve" text-anchor="middle" x="223.36" y="-512.2" font-family="Times,serif" font-size="14.00">requires</text>
</g>
<!-- req_3 -->
<g id="node14" class="node">
<title>req_3</title>
<path fill="none" stroke="black" d="M437.74,-431.5C437.74,-431.5 396.24,-431.5 396.24,-431.5 390.24,-431.5 384.24,-425.5 384.24,-419.5 384.24,-419.5 384.24,-407.5 384.24,-407.5 384.24,-401.5 390.24,-395.5 396.24,-395.5 396.24,-395.5 437.74,-395.5 437.74,-395.5 443.74,-395.5 449.74,-401.5 449.74,-407.5 449.74,-407.5 449.74,-419.5 449.74,-419.5 449.74,-425.5 443.74,-431.5 437.74,-431.5"/>
<text xml:space="preserve" text-anchor="middle" x="416.99" y="-409.62" font-family="Times,serif" font-size="10.00">Python 3.13</text>
</g>
<!-- root&#45;&gt;req_3 -->
<g id="edge13" class="edge">
<title>root&#45;&gt;req_3</title>
<path fill="none" stroke="black" d="M104.47,-526.29C123.28,-508.45 151.87,-483.97 180.99,-469 242.99,-437.13 323.6,-423.25 372.48,-417.43"/>
<polygon fill="black" stroke="black" points="372.84,-420.91 382.39,-416.32 372.06,-413.95 372.84,-420.91"/>
<text xml:space="preserve" text-anchor="middle" x="223.36" y="-472.2" font-family="Times,serif" font-size="14.00">requires</text>
</g>
<!-- install -->
<g id="node15" class="node">
<title>install</title>
<polygon fill="none" stroke="black" points="498.86,-377.5 495.86,-381.5 474.86,-381.5 471.86,-377.5 335.11,-377.5 335.11,-341.5 498.86,-341.5 498.86,-377.5"/>
<text xml:space="preserve" text-anchor="middle" x="416.99" y="-355.62" font-family="Times,serif" font-size="10.00">Install the Frequenz SDK for Python</text>
</g>
<!-- root&#45;&gt;install -->
<g id="edge14" class="edge">
<title>root&#45;&gt;install</title>
<path fill="none" stroke="black" d="M93.62,-526.13C109.21,-497.01 140.3,-446.49 180.99,-418 222.67,-388.82 277.46,-374.15 323.65,-366.8"/>
<polygon fill="black" stroke="black" points="324.02,-370.28 333.39,-365.35 322.98,-363.36 324.02,-370.28"/>
<text xml:space="preserve" text-anchor="middle" x="223.36" y="-421.2" font-family="Times,serif" font-size="14.00">install</text>
</g>
<!-- example_1 -->
<g id="node17" class="node">
<title>example_1</title>
<polygon fill="none" stroke="black" points="465.49,-323.5 368.49,-323.5 368.49,-319.5 364.49,-319.5 364.49,-315.5 368.49,-315.5 368.49,-295.5 364.49,-295.5 364.49,-291.5 368.49,-291.5 368.49,-287.5 465.49,-287.5 465.49,-323.5"/>
<polyline fill="none" stroke="black" points="368.49,-319.5 372.49,-319.5 372.49,-315.5 368.49,-315.5"/>
<polyline fill="none" stroke="black" points="368.49,-295.5 372.49,-295.5 372.49,-291.5 368.49,-291.5"/>
<text xml:space="preserve" text-anchor="middle" x="416.99" y="-301.62" font-family="Times,serif" font-size="10.00">Example 1 (Python)</text>
</g>
<!-- root&#45;&gt;example_1 -->
<g id="edge16" class="edge">
<title>root&#45;&gt;example_1</title>
<path fill="none" stroke="black" d="M87.68,-526.27C98.16,-486.43 125.71,-402.97 180.99,-359 231.07,-319.17 305.18,-307.83 356.74,-305.16"/>
<polygon fill="black" stroke="black" points="356.67,-308.67 366.52,-304.76 356.38,-301.67 356.67,-308.67"/>
<text xml:space="preserve" text-anchor="middle" x="223.36" y="-362.2" font-family="Times,serif" font-size="14.00">example</text>
</g>
<!-- q_1 -->
<g id="node18" class="node">
<title>q_1</title>
<ellipse fill="none" stroke="black" cx="416.99" cy="-251.5" rx="84.46" ry="18"/>
<text xml:space="preserve" text-anchor="middle" x="416.99" y="-247.62" font-family="Times,serif" font-size="10.00">What is the Frequenz SDK for?</text>
</g>
<!-- root&#45;&gt;q_1 -->
<g id="edge17" class="edge">
<title>root&#45;&gt;q_1</title>
<path fill="none" stroke="black" d="M84.36,-526.12C89.73,-476.85 109.76,-358.65 180.99,-299 219.68,-266.6 274.44,-254.23 321.37,-250.19"/>
<polygon fill="black" stroke="black" points="321.57,-253.69 331.29,-249.47 321.06,-246.71 321.57,-253.69"/>
<text xml:space="preserve" text-anchor="middle" x="223.36" y="-302.2" font-family="Times,serif" font-size="14.00">question</text>
</g>
<!-- q_2 -->
<g id="node20" class="node">
<title>q_2</title>
<ellipse fill="none" stroke="black" cx="416.99" cy="-197.5" rx="73.37" ry="18"/>
<text xml:space="preserve" text-anchor="middle" x="416.99" y="-193.62" font-family="Times,serif" font-size="10.00">How do I install the SDK?</text>
</g>
<!-- root&#45;&gt;q_2 -->
<g id="edge19" class="edge">
<title>root&#45;&gt;q_2</title>
<path fill="none" stroke="black" d="M82.34,-526.12C83.26,-468.86 94.15,-316.21 180.99,-240 222.69,-203.4 285.01,-193.45 335,-192.29"/>
<polygon fill="black" stroke="black" points="334.96,-195.79 344.93,-192.19 334.89,-188.79 334.96,-195.79"/>
<text xml:space="preserve" text-anchor="middle" x="223.36" y="-243.2" font-family="Times,serif" font-size="14.00">question</text>
</g>
<!-- q_3 -->
<g id="node22" class="node">
<title>q_3</title>
<ellipse fill="none" stroke="black" cx="416.99" cy="-143.5" rx="100.44" ry="18"/>
<text xml:space="preserve" text-anchor="middle" x="416.99" y="-139.62" font-family="Times,serif" font-size="10.00">Show me an example of how to use it.</text>
</g>
<!-- root&#45;&gt;q_3 -->
<g id="edge21" class="edge">
<title>root&#45;&gt;q_3</title>
<path fill="none" stroke="black" d="M85.3,-526.15C94.86,-453.86 128.43,-228.38 180.99,-181 216.71,-148.8 268.53,-138.13 314.43,-136.07"/>
<polygon fill="black" stroke="black" points="314.25,-139.57 324.13,-135.77 314.03,-132.58 314.25,-139.57"/>
<text xml:space="preserve" text-anchor="middle" x="223.36" y="-184.2" font-family="Times,serif" font-size="14.00">question</text>
</g>
<!-- q_4 -->
<g id="node24" class="node">
<title>q_4</title>
<ellipse fill="none" stroke="black" cx="416.99" cy="-89.5" rx="68.93" ry="18"/>
<text xml:space="preserve" text-anchor="middle" x="416.99" y="-85.62" font-family="Times,serif" font-size="10.00">What license is it under?</text>
</g>
<!-- root&#45;&gt;q_4 -->
<g id="edge23" class="edge">
<title>root&#45;&gt;q_4</title>
<path fill="none" stroke="black" d="M84.37,-526.25C91.55,-446.64 119.99,-177.76 180.99,-122 224.58,-82.15 293.08,-76.74 344.89,-79.7"/>
<polygon fill="black" stroke="black" points="344.62,-83.19 354.84,-80.4 345.11,-76.21 344.62,-83.19"/>
<text xml:space="preserve" text-anchor="middle" x="223.36" y="-125.2" font-family="Times,serif" font-size="14.00">question</text>
</g>
<!-- q_5 -->
<g id="node26" class="node">
<title>q_5</title>
<ellipse fill="none" stroke="black" cx="416.99" cy="-31.5" rx="103.99" ry="18"/>
<text xml:space="preserve" text-anchor="middle" x="416.99" y="-27.62" font-family="Times,serif" font-size="10.00">Which Python versions does it require?</text>
</g>
<!-- root&#45;&gt;q_5 -->
<g id="edge25" class="edge">
<title>root&#45;&gt;q_5</title>
<path fill="none" stroke="black" d="M83.71,-526.29C88.89,-439.99 112.15,-128.62 180.99,-64 217.68,-29.55 272.89,-20.59 320.58,-20.62"/>
<polygon fill="black" stroke="black" points="320.33,-24.12 330.38,-20.77 320.44,-17.12 320.33,-24.12"/>
<text xml:space="preserve" text-anchor="middle" x="223.36" y="-67.2" font-family="Times,serif" font-size="14.00">question</text>
</g>
<!-- step_1 -->
<g id="node16" class="node">
<title>step_1</title>
<path fill="none" stroke="black" d="M831.36,-377.5C831.36,-377.5 693.86,-377.5 693.86,-377.5 687.86,-377.5 681.86,-371.5 681.86,-365.5 681.86,-365.5 681.86,-353.5 681.86,-353.5 681.86,-347.5 687.86,-341.5 693.86,-341.5 693.86,-341.5 831.36,-341.5 831.36,-341.5 837.36,-341.5 843.36,-347.5 843.36,-353.5 843.36,-353.5 843.36,-365.5 843.36,-365.5 843.36,-371.5 837.36,-377.5 831.36,-377.5"/>
<text xml:space="preserve" text-anchor="middle" x="762.61" y="-355.62" font-family="Times,serif" font-size="10.00">python3 &#45;m pip install frequenz&#45;sdk</text>
</g>
<!-- install&#45;&gt;step_1 -->
<g id="edge15" class="edge">
<title>install&#45;&gt;step_1</title>
<path fill="none" stroke="black" d="M498.99,-359.5C550.28,-359.5 616.74,-359.5 669.96,-359.5"/>
<polygon fill="black" stroke="black" points="669.94,-363 679.94,-359.5 669.94,-356 669.94,-363"/>
<text xml:space="preserve" text-anchor="middle" x="587.36" y="-362.7" font-family="Times,serif" font-size="14.00">step 1</text>
</g>
<!-- a_1 -->
<g id="node19" class="node">
<title>a_1</title>
<path fill="none" stroke="black" d="M888.74,-269.5C888.74,-269.5 636.49,-269.5 636.49,-269.5 630.49,-269.5 624.49,-263.5 624.49,-257.5 624.49,-257.5 624.49,-245.5 624.49,-245.5 624.49,-239.5 630.49,-233.5 636.49,-233.5 636.49,-233.5 888.74,-233.5 888.74,-233.5 894.74,-233.5 900.74,-239.5 900.74,-245.5 900.74,-245.5 900.74,-257.5 900.74,-257.5 900.74,-263.5 894.74,-269.5 888.74,-269.5"/>
<text xml:space="preserve" text-anchor="middle" x="762.61" y="-247.62" font-family="Times,serif" font-size="10.00">A development kit to interact with the Frequenz development…</text>
</g>
<!-- q_1&#45;&gt;a_1 -->
<g id="edge18" class="edge">
<title>q_1&#45;&gt;a_1</title>
<path fill="none" stroke="black" d="M501.61,-251.5C535.15,-251.5 574.84,-251.5 612.98,-251.5"/>
<polygon fill="black" stroke="black" points="612.71,-255 622.71,-251.5 612.71,-248 612.71,-255"/>
<text xml:space="preserve" text-anchor="middle" x="587.36" y="-254.7" font-family="Times,serif" font-size="14.00">answer</text>
</g>
<!-- a_2 -->
<g id="node21" class="node">
<title>a_2</title>
<path fill="none" stroke="black" d="M833.99,-215.5C833.99,-215.5 691.24,-215.5 691.24,-215.5 685.24,-215.5 679.24,-209.5 679.24,-203.5 679.24,-203.5 679.24,-191.5 679.24,-191.5 679.24,-185.5 685.24,-179.5 691.24,-179.5 691.24,-179.5 833.99,-179.5 833.99,-179.5 839.99,-179.5 845.99,-185.5 845.99,-191.5 845.99,-191.5 845.99,-203.5 845.99,-203.5 845.99,-209.5 839.99,-215.5 833.99,-215.5"/>
<text xml:space="preserve" text-anchor="middle" x="762.61" y="-199.25" font-family="Times,serif" font-size="10.00">Installation:</text>
<text xml:space="preserve" text-anchor="middle" x="762.61" y="-188" font-family="Times,serif" font-size="10.00">&#45; python3 &#45;m pip install frequenz&#45;sdk</text>
</g>
<!-- q_2&#45;&gt;a_2 -->
<g id="edge20" class="edge">
<title>q_2&#45;&gt;a_2</title>
<path fill="none" stroke="black" d="M490.44,-197.5C542.02,-197.5 611.81,-197.5 667.66,-197.5"/>
<polygon fill="black" stroke="black" points="667.49,-201 677.49,-197.5 667.49,-194 667.49,-201"/>
<text xml:space="preserve" text-anchor="middle" x="587.36" y="-200.7" font-family="Times,serif" font-size="14.00">answer</text>
</g>
<!-- a_3 -->
<g id="node23" class="node">
<title>a_3</title>
<path fill="none" stroke="black" d="M805.86,-161.5C805.86,-161.5 719.36,-161.5 719.36,-161.5 713.36,-161.5 707.36,-155.5 707.36,-149.5 707.36,-149.5 707.36,-137.5 707.36,-137.5 707.36,-131.5 713.36,-125.5 719.36,-125.5 719.36,-125.5 805.86,-125.5 805.86,-125.5 811.86,-125.5 817.86,-131.5 817.86,-137.5 817.86,-137.5 817.86,-149.5 817.86,-149.5 817.86,-155.5 811.86,-161.5 805.86,-161.5"/>
<text xml:space="preserve" text-anchor="middle" x="762.61" y="-145.25" font-family="Times,serif" font-size="10.00">python3 &#45;m venv .venv</text>
<text xml:space="preserve" text-anchor="middle" x="762.61" y="-134" font-family="Times,serif" font-size="10.00">. .venv/bin/activate</text>
</g>
<!-- q_3&#45;&gt;a_3 -->
<g id="edge22" class="edge">
<title>q_3&#45;&gt;a_3</title>
<path fill="none" stroke="black" d="M517.84,-143.5C575.01,-143.5 645.16,-143.5 695.51,-143.5"/>
<polygon fill="black" stroke="black" points="695.38,-147 705.38,-143.5 695.38,-140 695.38,-147"/>
<text xml:space="preserve" text-anchor="middle" x="587.36" y="-146.7" font-family="Times,serif" font-size="14.00">answer</text>
</g>
<!-- a_4 -->
<g id="node25" class="node">
<title>a_4</title>
<path fill="none" stroke="black" d="M850.86,-107.5C850.86,-107.5 674.36,-107.5 674.36,-107.5 668.36,-107.5 662.36,-101.5 662.36,-95.5 662.36,-95.5 662.36,-83.5 662.36,-83.5 662.36,-77.5 668.36,-71.5 674.36,-71.5 674.36,-71.5 850.86,-71.5 850.86,-71.5 856.86,-71.5 862.86,-77.5 862.86,-83.5 862.86,-83.5 862.86,-95.5 862.86,-95.5 862.86,-101.5 856.86,-107.5 850.86,-107.5"/>
<text xml:space="preserve" text-anchor="middle" x="762.61" y="-85.62" font-family="Times,serif" font-size="10.00">License: https://opensource.org/licenses/MIT</text>
</g>
<!-- q_4&#45;&gt;a_4 -->
<g id="edge24" class="edge">
<title>q_4&#45;&gt;a_4</title>
<path fill="none" stroke="black" d="M486.29,-89.5C533.25,-89.5 596.66,-89.5 650.79,-89.5"/>
<polygon fill="black" stroke="black" points="650.68,-93 660.68,-89.5 650.68,-86 650.68,-93"/>
<text xml:space="preserve" text-anchor="middle" x="587.36" y="-92.7" font-family="Times,serif" font-size="14.00">answer</text>
</g>
<!-- a_5 -->
<g id="node27" class="node">
<title>a_5</title>
<path fill="none" stroke="black" d="M788.24,-53C788.24,-53 736.99,-53 736.99,-53 730.99,-53 724.99,-47 724.99,-41 724.99,-41 724.99,-12 724.99,-12 724.99,-6 730.99,0 736.99,0 736.99,0 788.24,0 788.24,0 794.24,0 800.24,-6 800.24,-12 800.24,-12 800.24,-41 800.24,-41 800.24,-47 794.24,-53 788.24,-53"/>
<text xml:space="preserve" text-anchor="middle" x="762.61" y="-39.5" font-family="Times,serif" font-size="10.00">Requirements:</text>
<text xml:space="preserve" text-anchor="middle" x="762.61" y="-28.25" font-family="Times,serif" font-size="10.00">&#45; Python 3.11</text>
<text xml:space="preserve" text-anchor="middle" x="762.61" y="-17" font-family="Times,serif" font-size="10.00">&#45; Python 3.12</text>
<text xml:space="preserve" text-anchor="middle" x="762.61" y="-5.75" font-family="Times,serif" font-size="10.00">&#45; Python 3.13</text>
</g>
<!-- q_5&#45;&gt;a_5 -->
<g id="edge26" class="edge">
<title>q_5&#45;&gt;a_5</title>
<path fill="none" stroke="black" d="M521.09,-30C584.78,-29.07 663.55,-27.93 713.21,-27.2"/>
<polygon fill="black" stroke="black" points="713.1,-30.71 723.05,-27.06 713,-23.71 713.1,-30.71"/>
<text xml:space="preserve" text-anchor="middle" x="587.36" y="-32.5" font-family="Times,serif" font-size="14.00">answer</text>
</g>
</g>
</svg>
